HIERARCHY
ROOT ui
{
	 OFFSET 0 0 0
	 CHANNELS 3 XPosition YPosition Z Position
	 EndSite
	 {
	 OFFSET 0 -1 0
	 }
}
ROOT li
{
	 OFFSET 0 0 0
	 CHANNELS 3 XPosition YPosition Z Position
	 EndSite
	 {
	 OFFSET 0 -1 0
	 }
}
ROOT ul
{
	 OFFSET 0 0 0
	 CHANNELS 3 XPosition YPosition Z Position
	 EndSite
	 {
	 OFFSET 0 -1 0
	 }
}
ROOT ll
{
	 OFFSET 0 0 0
	 CHANNELS 3 XPosition YPosition Z Position
	 EndSite
	 {
	 OFFSET 0 -1 0
	 }
}
ROOT tt
{
	 OFFSET 0 0 0
	 CHANNELS 3 XPosition YPosition Z Position
	 EndSite
	 {
	 OFFSET 0 -1 0
	 }
}
ROOT tb
{
	 OFFSET 0 0 0
	 CHANNELS 3 XPosition YPosition Z Position
	 EndSite
	 {
	 OFFSET 0 -1 0
	 }
}
ROOT td
{
	 OFFSET 0 0 0
	 CHANNELS 3 XPosition YPosition Z Position
	 EndSite
	 {
	 OFFSET 0 -1 0
	 }
}
ROOT v
{
	 OFFSET 0 0 0
	 CHANNELS 3 XPosition YPosition Z Position
	 EndSite
	 {
	 OFFSET 0 -1 0
	 }
}
ROOT bn
{
	 OFFSET 0 0 0
	 CHANNELS 3 XPosition YPosition Z Position
	 EndSite
	 {
	 OFFSET 0 -1 0
	 }
}
MOTION
Frames: 27
Frame Time: 0.002
-0.05062247085571289	-0.0032044670581817627	0		0.5061521606445313	-2.496383544921875	0		-1.0089735717773438	-0.02518667221069336	0		-0.7398900756835938	-2.252736572265625	0		1.97443359375	-1.12769091796875	0		3.512915771484375	-0.7799590454101563	0		4.690564453125	-0.41670037841796875	0		5.85145703125	0.3648013000488281	0		-0.34156246948242186	5.82390283203125	0		
0.029280027389526366	-0.0016084810495376586	0		0.5350464477539062	-2.494150390625	0		-1.0060525512695313	-0.021619966506958008	0		-0.7739268798828125	-2.244707275390625	0		1.963676513671875	-1.0979652099609376	0		3.53003271484375	-0.7605913696289063	0		4.69252099609375	-0.4101492919921875	0		5.845443359375	0.37344692993164064	0		-0.20839720153808594	5.84383349609375	0		
-0.04583185958862305	0.003921247959136963	0		0.5318388061523438	-2.495527099609375	0		-1.0212445678710937	-0.022836782455444335	0		-0.7421985473632813	-2.25151513671875	0		1.962753173828125	-1.077377197265625	0		3.505698974609375	-0.7727213134765625	0		4.67931396484375	-0.41242495727539064	0		5.8319775390625	0.35016607666015626	0		-0.3437834777832031	5.8251201171875	0		
0.023851654052734376	-0.004383365154266358	0		0.5196876831054688	-2.488806640625	0		-1.0286556396484374	-0.03816708755493164	0		-0.7434242553710938	-2.250924072265625	0		1.9327763671875	-1.0574415283203125	0		3.48657275390625	-0.764933349609375	0		4.66813916015625	-0.4087450866699219	0		5.83076953125	0.3507127990722656	0		-0.3732035217285156	5.8060615234375	0		
-0.05535821533203125	-8.366770148277283E-4	0		0.5184281616210937	-2.488243896484375	0		-1.0358211669921875	-0.031517744064331055	0		-0.7487319946289063	-2.254301025390625	0		1.927829345703125	-1.0328406982421876	0		3.485325927734375	-0.764392333984375	0		4.65870751953125	-0.423111083984375	0		5.8125322265625	0.3514501037597656	0		-0.37440167236328126	5.80663134765625	0		
0.017316438674926757	-0.0062227978706359864	0		0.5000785827636719	-2.493489990234375	0		-1.03519140625	-0.03999075698852539	0		-0.8120133666992188	-2.25397216796875	0		1.906755126953125	-1.0170614013671875	0		3.483201904296875	-0.7528634643554688	0		4.65156103515625	-0.4135281066894531	0		5.829251953125	0.3497234191894531	0		-0.21311154174804686	5.84613720703125	0		
0.02009994316101074	-0.002756295919418335	0		0.5288294677734375	-2.49135400390625	0		-1.0324080810546874	-0.03651663970947266	0		-0.747225830078125	-2.24927978515625	0		1.8958846435546874	-0.9854346313476563	0		3.47669140625	-0.7723069458007813	0		4.65030419921875	-0.4130445556640625	0		5.82800048828125	0.35019845581054687	0		-0.34758941650390623	5.8263310546875	0		
0.01886692428588867	-0.0022678530216217042	0		0.5176940307617187	-2.48174365234375	0		-1.0417288818359376	-0.04291995620727539	0		-0.825429931640625	-2.2448173828125	0		1.90893359375	-0.9621366577148438	0		3.46869287109375	-0.7527548217773438	0		4.6419306640625	-0.4234978332519531	0		5.82676953125	0.35064837646484376	0		-0.24377949523925782	5.82650048828125	0		
-0.06029804229736328	0.001172750949859619	0		0.5414175415039062	-2.486602783203125	0		-1.046962890625	-0.04540444564819336	0		-0.7557715454101562	-2.2552470703125	0		1.874048828125	-0.9362636108398438	0		3.470340576171875	-0.7643543701171875	0		4.634845703125	-0.41399288940429685	0		5.82147509765625	0.3431221923828125	0		-0.4122669372558594	5.80206591796875	0		
0.012489509582519532	-0.004331443786621094	0		0.5132992553710938	-2.482838623046875	0		-1.0521568603515625	-0.04892007827758789	0		-0.7969126586914063	-2.253311279296875	0		1.8812772216796876	-0.9059503784179688	0		3.440345947265625	-0.7515829467773437	0		4.619625	-0.41941586303710937	0		5.81133447265625	0.3436287536621094	0		-0.24506202697753907	5.82637646484375	0		
0.011417933464050293	-0.0039356379508972165	0		0.5220985107421875	-2.491571044921875	0		-1.0572662353515625	-0.05146720504760742	0		-0.7870994873046875	-2.261048583984375	0		1.866466064453125	-0.8843909912109374	0		3.444954345703125	-0.7762813720703124	0		4.609375	-0.43293319702148436	0		5.81923876953125	0.34187640380859374	0		-0.38418841552734373	5.82051416015625	0		
0.017526723861694335	0.0033397250175476074	0		0.5002183532714843	-2.481946044921875	0		-1.0501578369140625	-0.04419742202758789	0		-0.8210023803710937	-2.253263427734375	0		1.8677081298828124	-0.866065673828125	0		3.432387451171875	-0.7427910766601562	0		4.6065830078125	-0.4175752258300781	0		5.8313623046875	0.35003778076171876	0		-0.216814453125	5.84476025390625	0		
0.013608600616455078	-2.8912198543548586E-4	0		0.54034033203125	-2.481134521484375	0		-1.05911376953125	-0.05075455093383789	0		-0.7998770751953125	-2.25220166015625	0		1.8551751708984374	-0.838597900390625	0		3.428236328125	-0.7644452514648438	0		4.598560546875	-0.4291889343261719	0		5.82152294921875	0.3524385681152344	0		-0.3528655700683594	5.82780029296875	0		
0.012866471290588379	1.3113000430166722E-5	0		0.511588134765625	-2.47948388671875	0		-1.0679442138671875	-0.05733991622924805	0		-0.7697706298828125	-2.262281982421875	0		1.83971630859375	-0.8151265869140625	0		3.398653076171875	-0.7508121337890625	0		4.59373876953125	-0.4348818359375	0		5.81668359375	0.3447335205078125	0		-0.3818120727539063	5.80746142578125	0		
0.00822378635406494	-0.002664249897003174	0		0.5358849487304688	-2.484534423828125	0		-1.0726002197265625	-0.06100286865234375	0		-0.8473616333007813	-2.2580263671875	0		1.8354041748046874	-0.790830322265625	0		3.414859619140625	-0.7647990112304688	0		4.57906591796875	-0.43949334716796873	0		5.82018408203125	0.35287716674804687	0		-0.38135284423828125	5.80672607421875	0		
0.011801621437072755	5.268170237541198E-4	0		0.4933734741210937	-2.484769775390625	0		-1.0630745849609375	-0.06186899948120117	0		-0.8478599853515625	-2.257769775390625	0		1.8322349853515625	-0.76658349609375	0		3.3936416015625	-0.7443509521484375	0		4.57067529296875	-0.43322860717773437	0		5.8287294921875	0.35290597534179685	0		-0.3817135314941406	5.806974609375	0		
0.01149266529083252	7.394480109214783E-4	0		0.5219970703125	-2.485934814453125	0		-1.063384765625	-0.06163370132446289	0		-0.848216552734375	-2.2575390625	0		1.8001915283203125	-0.7440051879882813	0		3.383026123046875	-0.7670809326171875	0		4.5690908203125	-0.4540977478027344	0		5.83642724609375	0.3528945007324219	0		-0.22038034057617187	5.847150390625	0		
0.011337331771850586	9.235649704933167E-4	0		0.5118940124511718	-2.476637451171875	0		-1.06759228515625	-0.06537123107910156	0		-0.813495361328125	-2.262777587890625	0		1.828383544921875	-0.7152244873046875	0		3.390952392578125	-0.75908447265625	0		4.5579375	-0.45288925170898436	0		5.83628076171875	0.35293118286132813	0		-0.24766510009765624	5.82568505859375	0		
0.007297760963439941	-0.0018689939975738525	0		0.5268671875	-2.4726875	0		-1.0716337890625	-0.06813118743896485	0		-0.8675101318359375	-2.257908935546875	0		1.7915543212890626	-0.699653076171875	0		3.373878173828125	-0.7628134765625	0		4.54285986328125	-0.4576789245605469	0		5.82652001953125	0.37103732299804687	0		-0.38173464965820314	5.8075576171875	0		
0.007447104930877685	-0.00173983895778656	0		0.5098516845703125	-2.478359619140625	0		-1.0814732666015625	-0.06683525848388672	0		-0.7866663208007812	-2.27578125	0		1.8200465087890625	-0.6709486083984375	0		3.3691025390625	-0.7547431640625	0		4.54580078125	-0.47275131225585937	0		5.8315673828125	0.36189239501953124	0		-0.415435791015625	5.8031357421875	0		
0.007742880821228027	-0.0016370209455490111	0		0.5100404357910157	-2.478278564453125	0		-1.0711939697265624	-0.06781346893310547	0		-0.8993698120117187	-2.267196533203125	0		1.776534912109375	-0.653361572265625	0		3.36027685546875	-0.761669677734375	0		4.5230908203125	-0.47154989624023436	0		5.8408525390625	0.3596283264160156	0		-0.4129277648925781	5.8002314453125	0		
0.01221666431427002	0.001388964056968689	0		0.5253240966796875	-2.4804189453125	0		-1.0667235107421875	-0.06473307800292968	0		-0.8210807495117187	-2.270076416015625	0		1.7852457275390625	-0.62947802734375	0		3.368982177734375	-0.737865966796875	0		4.54956494140625	-0.4670348815917969	0		5.84055078125	0.37842315673828125	0		-0.3498702392578125	5.8255302734375	0		
0.012783108711242675	0.001442728042602539	0		0.5148268432617188	-2.4742529296875	0		-1.066160888671875	-0.06461751556396485	0		-0.87560107421875	-2.266264404296875	0		1.7781644287109375	-0.5994248657226563	0		3.321419677734375	-0.7443834838867187	0		4.52096484375	-0.477865234375	0		5.83703564453125	0.37019546508789064	0		-0.2166839599609375	5.84689697265625	0		
0.009430036544799805	-0.0014736969470977783	0		0.5283797607421875	-2.472422607421875	0		-1.0766083984375	-0.07437378692626953	0		-0.80620849609375	-2.27807177734375	0		1.7544503173828125	-0.5501852416992188	0		3.336056640625	-0.7447444458007813	0		4.5175419921875	-0.4840682373046875	0		5.83774462890625	0.36985629272460935	0		-0.377158447265625	5.80703759765625	0		
0.010219988822937011	-0.001463191032409668	0		0.5119208984375	-2.4782255859375	0		-1.0758236083984376	-0.07428771209716797	0		-0.8475994873046875	-2.279455810546875	0		1.76129296875	-0.5433751220703125	0		3.322796142578125	-0.7447825927734375	0		4.5021953125	-0.49216180419921873	0		5.838560546875	0.36946124267578123	0		-0.3769512023925781	5.808087890625	0		
0.011097319602966308	-0.0014724040031433106	0		0.5126124877929688	-2.4782724609375	0		-1.07495166015625	-0.07421546936035156	0		-0.8380382080078125	-2.29051806640625	0		1.7614317626953124	-0.5205045166015625	0		3.331721923828125	-0.73714599609375	0		4.5089169921875	-0.5015859375	0		5.8435703125	0.376961669921875	0		-0.380453857421875	5.82217236328125	0		
0.016081413269042968	0.0014472349882125855	0		0.48157467651367186	-2.461918212890625	0		-1.140901123046875	-0.06527188873291015	0		-0.8840994262695312	-2.27685791015625	0		1.774532470703125	-0.5058306884765625	0		3.319477294921875	-0.747264404296875	0		4.49783642578125	-0.5008120422363281	0		5.85354443359375	0.3763521423339844	0		-0.21170419311523436	5.84696728515625	0		
